<?xml version="1.0" encoding="UTF-8" standalone="no"?>
<svg
   xmlns:dc="http://purl.org/dc/elements/1.1/"
   xmlns:cc="http://creativecommons.org/ns#"
   xmlns:rdf="http://www.w3.org/1999/02/22-rdf-syntax-ns#"
   xmlns:svg="http://www.w3.org/2000/svg"
   xmlns="http://www.w3.org/2000/svg"
   xmlns:sodipodi="http://sodipodi.sourceforge.net/DTD/sodipodi-0.dtd"
   xmlns:inkscape="http://www.inkscape.org/namespaces/inkscape"
   width="128mm"
   height="128mm"
   viewBox="0 0 128 128"
   version="1.1"
   id="svg46543"
   inkscape:version="1.0.1 (3bc2e813f5, 2020-09-07)"
   sodipodi:docname="sugaroid-angel.svg">
  <defs
     id="defs46537" />
  <sodipodi:namedview
     id="base"
     pagecolor="#ffffff"
     bordercolor="#666666"
     borderopacity="1.0"
     inkscape:pageopacity="0.0"
     inkscape:pageshadow="2"
     inkscape:zoom="0.7"
     inkscape:cx="177.98648"
     inkscape:cy="307.65764"
     inkscape:document-units="mm"
     inkscape:current-layer="layer1"
     inkscape:document-rotation="0"
     showgrid="false"
     inkscape:window-width="1366"
     inkscape:window-height="710"
     inkscape:window-x="0"
     inkscape:window-y="28"
     inkscape:window-maximized="1" />
  <metadata
     id="metadata46540">
    <rdf:RDF>
      <cc:Work
         rdf:about="">
        <dc:format>image/svg+xml</dc:format>
        <dc:type
           rdf:resource="http://purl.org/dc/dcmitype/StillImage" />
        <dc:title></dc:title>
      </cc:Work>
    </rdf:RDF>
  </metadata>
  <g
     inkscape:label="Layer 1"
     inkscape:groupmode="layer"
     id="layer1">
    <g
       id="g49802"
       transform="translate(49.027647,2.513187)">
      <circle
         inkscape:export-filename="/home/ss/repo/sugaroid/sugaroid/gui/ui/sugaroid_angel.png"
         inkscape:export-ydpi="96"
         inkscape:export-xdpi="96"
         r="60.789185"
         cy="61.687138"
         cx="14.653694"
         id="path826-4-66-4"
         style="fill:#ff004b;fill-opacity:1;stroke-width:0.178837" />
      <g
         inkscape:export-ydpi="96"
         inkscape:export-xdpi="96"
         inkscape:export-filename="/home/ss/repo/sugaroid/sugaroid/gui/ui/sugaroid_angel.png"
         id="g1002-2-5"
         transform="matrix(0.67591455,0,0,0.67591455,-197.50851,-14.139073)">
        <circle
           style="fill:#acac00;fill-opacity:0;stroke-width:0.275591"
           id="path826-3-46-0-7"
           cx="313.67911"
           cy="112.18314"
           r="93.677971"
           inkscape:export-xdpi="96"
           inkscape:export-ydpi="96" />
        <circle
           style="fill:#0f3000;fill-opacity:0;stroke-width:0.275591"
           id="path826-3-4-4-6"
           cx="314.45605"
           cy="112.44772"
           r="93.677971"
           inkscape:export-xdpi="96"
           inkscape:export-ydpi="96" />
        <path
           style="fill:#d6d6d6;fill-opacity:1;stroke:none;stroke-width:0.264583px;stroke-linecap:butt;stroke-linejoin:miter;stroke-opacity:1"
           d="m 311.64137,52.260417 c -34.784,0.464848 -73.94392,56.493923 -57.45238,87.123513 18.69522,34.72246 100.07698,34.96918 118.30654,0 16.37519,-31.41198 -25.43333,-87.596872 -60.85416,-87.123513 z"
           id="path894-8-0-2"
           inkscape:connector-curvature="0"
           sodipodi:nodetypes="aaaa" />
        <path
           style="fill:#ececec;fill-opacity:1;stroke:none;stroke-width:0.238023px;stroke-linecap:butt;stroke-linejoin:miter;stroke-opacity:1"
           d="m 311.37627,52.260212 c -30.2398,0.432739 -64.28385,52.591648 -49.94677,81.105518 16.25286,32.32403 87.00288,32.5537 102.85092,0 14.23593,-29.24222 -22.11071,-81.54618 -52.90415,-81.105518 z"
           id="path894-83-8"
           inkscape:connector-curvature="0"
           sodipodi:nodetypes="aaaa" />
        <circle
           style="fill:#0073ff;fill-opacity:1;stroke:none;stroke-width:0.359562"
           id="path896-1-1-4"
           cx="285.27753"
           cy="125.68229"
           r="15.024553" />
        <circle
           style="fill:#00002d;fill-opacity:1;stroke:none;stroke-width:0.264583"
           id="path896-2-2"
           cx="285.27753"
           cy="125.68229"
           r="11.055803" />
        <circle
           style="fill:#0073ff;fill-opacity:1;stroke:none;stroke-width:0.359562"
           id="path896-1-2-8-1"
           cx="340.84003"
           cy="125.41772"
           r="15.024553" />
        <circle
           style="fill:#00002d;fill-opacity:1;stroke:none;stroke-width:0.264583"
           id="path896-4-6-0"
           cx="340.46204"
           cy="125.68229"
           r="11.055803" />
      </g>
      <ellipse
         inkscape:export-ydpi="96"
         inkscape:export-xdpi="96"
         inkscape:export-filename="/home/ss/repo/sugaroid/sugaroid/gui/ui/sugaroid_angel.png"
         ry="4.269702"
         rx="4.1920714"
         cy="71.858437"
         cx="-5.9364786"
         id="path2099-2"
         style="fill:#000000;fill-rule:evenodd;stroke-width:0.310524" />
      <ellipse
         inkscape:export-ydpi="96"
         inkscape:export-xdpi="96"
         inkscape:export-filename="/home/ss/repo/sugaroid/sugaroid/gui/ui/sugaroid_angel.png"
         ry="1.3412678"
         rx="1.2965591"
         cy="67.946396"
         cx="35.295731"
         id="path2105-9"
         style="fill:#ffffff;fill-rule:evenodd;stroke-width:0.178837" />
      <ellipse
         inkscape:export-ydpi="96"
         inkscape:export-xdpi="96"
         inkscape:export-filename="/home/ss/repo/sugaroid/sugaroid/gui/ui/sugaroid_angel.png"
         ry="4.269702"
         rx="4.1920714"
         cy="72.237778"
         cx="31.5839"
         id="path2099-1-0"
         style="fill:#000000;fill-rule:evenodd;stroke-width:0.310524" />
      <ellipse
         inkscape:export-ydpi="96"
         inkscape:export-xdpi="96"
         inkscape:export-filename="/home/ss/repo/sugaroid/sugaroid/gui/ui/sugaroid_angel.png"
         ry="1.3412678"
         rx="1.2965591"
         cy="67.275772"
         cx="-2.3044746"
         id="path2105-1-3"
         style="fill:#ffffff;fill-rule:evenodd;stroke-width:0.178837" />
      <ellipse
         inkscape:export-ydpi="96"
         inkscape:export-xdpi="96"
         inkscape:export-filename="/home/ss/repo/sugaroid/sugaroid/gui/ui/sugaroid_angel.png"
         ry="2.8737047"
         rx="2.7779155"
         cy="73.535019"
         cx="-6.8648005"
         id="path2105-1-6-9"
         style="fill:#ffffff;fill-rule:evenodd;stroke-width:0.383162" />
      <ellipse
         inkscape:export-ydpi="96"
         inkscape:export-xdpi="96"
         inkscape:export-filename="/home/ss/repo/sugaroid/sugaroid/gui/ui/sugaroid_angel.png"
         ry="2.9507895"
         rx="2.8524301"
         cy="73.85659"
         cx="30.324522"
         id="path2105-1-6-5-2"
         style="fill:#ffffff;fill-rule:evenodd;stroke-width:0.39344" />
      <path
         inkscape:export-ydpi="96"
         inkscape:export-xdpi="96"
         inkscape:export-filename="/home/ss/repo/sugaroid/sugaroid/gui/ui/sugaroid_angel.png"
         inkscape:connector-curvature="0"
         id="path2779"
         d="m 14.071917,25.273725 a 38.948434,8.114143 0 0 0 -38.94846,8.114234 38.948434,8.114143 0 0 0 38.94846,8.114058 38.948434,8.114143 0 0 0 38.948474,-8.114058 38.948434,8.114143 0 0 0 -38.948474,-8.114234 z m -1.116324,0.918177 a 32.092244,6.6857902 0 0 1 32.092279,6.68586 32.092244,6.6857902 0 0 1 -32.092279,6.685677 32.092244,6.6857902 0 0 1 -32.092284,-6.685677 32.092244,6.6857902 0 0 1 32.092284,-6.68586 z"
         style="fill:#fffe00;fill-opacity:1;fill-rule:evenodd;stroke-width:0.151798" />
      <path
         inkscape:export-ydpi="96"
         inkscape:export-xdpi="96"
         inkscape:export-filename="/home/ss/repo/sugaroid/sugaroid/gui/ui/sugaroid_angel.png"
         inkscape:connector-curvature="0"
         id="path2779-5"
         d="m 14.071917,25.273725 a 38.948434,8.114143 0 0 0 -38.94846,8.114234 38.948434,8.114143 0 0 0 38.94846,8.114058 38.948434,8.114143 0 0 0 38.948474,-8.114058 38.948434,8.114143 0 0 0 -38.948474,-8.114234 z m -1.116324,0.918177 a 32.092246,6.6857902 0 0 1 32.092279,6.68586 32.092246,6.6857902 0 0 1 -32.092279,6.685677 32.092246,6.6857902 0 0 1 -32.092284,-6.685677 32.092246,6.6857902 0 0 1 32.092284,-6.68586 z"
         style="fill:#fffe00;fill-opacity:1;fill-rule:evenodd;stroke-width:0.151798" />
      <path
         inkscape:export-ydpi="96"
         inkscape:export-xdpi="96"
         inkscape:export-filename="/home/ss/repo/sugaroid/sugaroid/gui/ui/sugaroid_angel.png"
         inkscape:connector-curvature="0"
         id="path2779-5-1"
         d="m 14.071917,25.273725 a 38.948434,9.2765741 0 0 0 -38.94846,9.276682 38.948434,9.2765741 0 0 0 38.94846,9.276472 38.948434,9.2765741 0 0 0 38.948474,-9.276472 38.948434,9.2765741 0 0 0 -38.948474,-9.276682 z m -1.116324,1.049716 a 32.092246,7.6435954 0 0 1 32.092279,7.643673 32.092246,7.6435954 0 0 1 -32.092279,7.643467 32.092246,7.6435954 0 0 1 -32.092284,-7.643467 32.092246,7.6435954 0 0 1 32.092284,-7.643673 z"
         style="fill:#ffbd00;fill-opacity:1;fill-rule:evenodd;stroke-width:0.162308" />
      <ellipse
         inkscape:export-ydpi="96"
         inkscape:export-xdpi="96"
         inkscape:export-filename="/home/ss/repo/sugaroid/sugaroid/gui/ui/sugaroid_angel.png"
         ry="5.15308"
         rx="17.190882"
         cy="29.050705"
         cx="13.753527"
         id="path1507"
         style="fill:#ececec;fill-opacity:1;fill-rule:evenodd;stroke-width:0.169405" />
    </g>
  </g>
</svg>
