<?xml version="1.0" encoding="UTF-8" standalone="no"?>
<svg
   xmlns:dc="http://purl.org/dc/elements/1.1/"
   xmlns:cc="http://creativecommons.org/ns#"
   xmlns:rdf="http://www.w3.org/1999/02/22-rdf-syntax-ns#"
   xmlns:svg="http://www.w3.org/2000/svg"
   xmlns="http://www.w3.org/2000/svg"
   xmlns:sodipodi="http://sodipodi.sourceforge.net/DTD/sodipodi-0.dtd"
   xmlns:inkscape="http://www.inkscape.org/namespaces/inkscape"
   width="128mm"
   height="128mm"
   viewBox="0 0 128 128"
   version="1.1"
   id="svg14480"
   inkscape:version="1.0.1 (3bc2e813f5, 2020-09-07, custom)"
   sodipodi:docname="sugaroid-blush.svg">
  <defs
     id="defs14474" />
  <sodipodi:namedview
     id="base"
     pagecolor="#ffffff"
     bordercolor="#666666"
     borderopacity="1.0"
     inkscape:pageopacity="0.0"
     inkscape:pageshadow="2"
     inkscape:zoom="0.64"
     inkscape:cx="670.64976"
     inkscape:cy="268.92814"
     inkscape:document-units="mm"
     inkscape:current-layer="layer1"
     inkscape:document-rotation="0"
     showgrid="false"
     inkscape:window-width="1366"
     inkscape:window-height="699"
     inkscape:window-x="0"
     inkscape:window-y="0"
     inkscape:window-maximized="1" />
  <metadata
     id="metadata14477">
    <rdf:RDF>
      <cc:Work
         rdf:about="">
        <dc:format>image/svg+xml</dc:format>
        <dc:type
           rdf:resource="http://purl.org/dc/dcmitype/StillImage" />
        <dc:title></dc:title>
      </cc:Work>
    </rdf:RDF>
  </metadata>
  <g
     inkscape:label="Layer 1"
     inkscape:groupmode="layer"
     id="layer1">
    <g
       transform="matrix(0.67752603,0,0,0.67752603,-151.43514,-569.47431)"
       id="g900">
      <circle
         style="fill:#ff004b;fill-opacity:1;stroke-width:0.264583"
         id="path826-4-0-8-7"
         cx="318.57599"
         cy="935.33966"
         r="89.936195"
         inkscape:export-xdpi="96"
         inkscape:export-ydpi="96"
      <g
         transform="translate(4.6869099,823.15654)"
         id="g1002-7-6-4"
         inkscape:export-xdpi="96"
         inkscape:export-ydpi="96">
        <circle
           inkscape:export-ydpi="96"
           inkscape:export-xdpi="96"
           r="93.677971"
           cy="112.18314"
           cx="313.67911"
           id="path826-3-46-8-6-8"
           style="fill:#acac00;fill-opacity:0;stroke-width:0.275591" />
        <circle
           inkscape:export-ydpi="96"
           inkscape:export-xdpi="96"
           r="93.677971"
           cy="112.44772"
           cx="314.45605"
           id="path826-3-4-3-4-6"
           style="fill:#0f3000;fill-opacity:0;stroke-width:0.275591" />
        <path
           sodipodi:nodetypes="aaaa"
           inkscape:connector-curvature="0"
           id="path894-8-5-4-6"
           d="m 311.64137,52.260417 c -34.784,0.464848 -73.94392,56.493923 -57.45238,87.123513 18.69522,34.72246 100.07698,34.96918 118.30654,0 16.37519,-31.41198 -25.43333,-87.596872 -60.85416,-87.123513 z"
           style="fill:#d6d6d6;fill-opacity:1;stroke:none;stroke-width:0.264583px;stroke-linecap:butt;stroke-linejoin:miter;stroke-opacity:1" />
        <path
           sodipodi:nodetypes="aaaa"
           inkscape:connector-curvature="0"
           id="path894-80-6-7"
           d="m 311.37627,52.260212 c -30.2398,0.432739 -64.28385,52.591648 -49.94677,81.105518 16.25286,32.32403 87.00288,32.5537 102.85092,0 14.23593,-29.24222 -22.11071,-81.54618 -52.90415,-81.105518 z"
           style="fill:#ececec;fill-opacity:1;stroke:none;stroke-width:0.238023px;stroke-linecap:butt;stroke-linejoin:miter;stroke-opacity:1" />
        <circle
           r="15.024553"
           cy="125.68229"
           cx="285.27753"
           id="path896-1-25-3-0"
           style="fill:#0073ff;fill-opacity:1;stroke:none;stroke-width:0.359562" />
        <circle
           r="11.055803"
           cy="125.68229"
           cx="285.27753"
           id="path896-12-2-55"
           style="fill:#00002d;fill-opacity:1;stroke:none;stroke-width:0.264583" />
        <circle
           r="15.024553"
           cy="125.41772"
           cx="340.84003"
           id="path896-1-2-3-2-48"
           style="fill:#0073ff;fill-opacity:1;stroke:none;stroke-width:0.359562" />
        <circle
           r="11.055803"
           cy="125.68229"
           cx="340.46204"
           id="path896-4-0-9-6"
           style="fill:#00002d;fill-opacity:1;stroke:none;stroke-width:0.264583" />
      </g>
      <path
         style="fill:#ececec;fill-opacity:1;stroke:none;stroke-width:0.670172"
         d="m 345.30468,942.7613 c -3.90223,1.3e-4 -7.06558,3.16349 -7.0657,7.06572 -0.66628,2.79586 -2.86909,2.64333 -3.68305,2.67994 -2.25728,1.1e-4 -4.0872,-1.82982 -4.08707,-4.0871 7.9e-4,-0.0164 0.002,-0.0327 0.003,-0.0491 l -3.67987,-0.23976 2.27171,7.75044 9.8893,11.75999 19.24328,-0.26715 8.41912,-21.5155 -6.21821,1.01029 c 0.0329,0.21082 0.05,0.4238 0.0511,0.63717 -9e-5,2.36136 -1.91433,4.2756 -4.27569,4.27569 -1.61262,-2.6e-4 -3.08789,-0.90791 -3.81529,-2.34715 -0.20823,-3.74308 -3.30341,-6.67201 -7.05228,-6.67347 z"
         id="path1046-9-3-1"
         inkscape:connector-curvature="0"
         sodipodi:nodetypes="cccccccccccccccc"
         inkscape:export-xdpi="96"
         inkscape:export-ydpi="96" />
      <path
         style="fill:#ececec;fill-opacity:1;stroke:none;stroke-width:0.670172"
         d="m 289.77143,943.16757 c -3.90223,1.3e-4 -7.06558,3.16349 -7.0657,7.06572 -0.66627,2.79586 -2.86908,2.64333 -3.68305,2.67994 -2.25728,1.1e-4 -4.08719,-1.82982 -4.08706,-4.0871 7.9e-4,-0.0164 0.002,-0.0327 0.003,-0.0491 l -3.67987,-0.23976 2.27171,7.75044 9.8893,11.75999 19.24328,-0.26715 8.41911,-21.5155 -6.2182,1.01029 c 0.0329,0.21082 0.05,0.4238 0.0511,0.63717 -9e-5,2.36136 -1.91433,4.2756 -4.27569,4.27569 -1.61262,-2.6e-4 -3.08789,-0.90791 -3.81529,-2.34715 -0.20823,-3.74308 -3.30341,-6.67201 -7.05228,-6.67347 z"
         id="path1046-9-3-2-3"
         inkscape:connector-curvature="0"
         sodipodi:nodetypes="cccccccccccccccc"
         inkscape:export-xdpi="96"
         inkscape:export-ydpi="96" />
      <ellipse
         style="fill:#ff0056;fill-opacity:1;fill-rule:evenodd;stroke-width:0.264583"
         id="path1296-6"
         cx="275.12057"
         cy="959.98743"
         rx="6.9222808"
         ry="5.238483"
         inkscape:export-xdpi="96"
         inkscape:export-ydpi="96" />
      <ellipse
         style="fill:#ff0056;fill-opacity:1;fill-rule:evenodd;stroke-width:0.264583"
         id="path1296-6-1"
         cx="361.92972"
         cy="959.98743"
         rx="6.9222808"
         ry="5.238483"
         inkscape:export-xdpi="96"
         inkscape:export-ydpi="96" />
      <circle
         style="fill:#ff004b;fill-opacity:1;stroke-width:0.264583"
         id="path826-4-0-8-7-8"
         cx="318.57599"
         cy="935.33966"
         r="89.936195"
         inkscape:export-xdpi="96"
         inkscape:export-ydpi="96"
      <g
         transform="translate(4.6869087,823.15655)"
         id="g1002-7-6-4-7"
         inkscape:export-xdpi="96"
         inkscape:export-ydpi="96">
        <circle
           inkscape:export-ydpi="96"
           inkscape:export-xdpi="96"
           r="93.677971"
           cy="112.18314"
           cx="313.67911"
           id="path826-3-46-8-6-8-2"
           style="fill:#acac00;fill-opacity:0;stroke-width:0.275591" />
        <circle
           inkscape:export-ydpi="96"
           inkscape:export-xdpi="96"
           r="93.677971"
           cy="112.44772"
           cx="314.45605"
           id="path826-3-4-3-4-6-4"
           style="fill:#0f3000;fill-opacity:0;stroke-width:0.275591" />
        <path
           sodipodi:nodetypes="aaaa"
           inkscape:connector-curvature="0"
           id="path894-8-5-4-6-8"
           d="m 311.64137,52.260417 c -34.784,0.464848 -73.94392,56.493923 -57.45238,87.123513 18.69522,34.72246 100.07698,34.96918 118.30654,0 16.37519,-31.41198 -25.43333,-87.596872 -60.85416,-87.123513 z"
           style="fill:#d6d6d6;fill-opacity:1;stroke:none;stroke-width:0.264583px;stroke-linecap:butt;stroke-linejoin:miter;stroke-opacity:1" />
        <path
           sodipodi:nodetypes="aaaa"
           inkscape:connector-curvature="0"
           id="path894-80-6-7-2"
           d="m 311.37627,52.260212 c -30.2398,0.432739 -64.28385,52.591648 -49.94677,81.105518 16.25286,32.32403 87.00288,32.5537 102.85092,0 14.23593,-29.24222 -22.11071,-81.54618 -52.90415,-81.105518 z"
           style="fill:#ececec;fill-opacity:1;stroke:none;stroke-width:0.238023px;stroke-linecap:butt;stroke-linejoin:miter;stroke-opacity:1" />
        <circle
           r="15.024553"
           cy="125.68229"
           cx="285.27753"
           id="path896-1-25-3-0-1"
           style="fill:#0073ff;fill-opacity:1;stroke:none;stroke-width:0.359562" />
        <circle
           r="11.055803"
           cy="125.68229"
           cx="285.27753"
           id="path896-12-2-55-2"
           style="fill:#00002d;fill-opacity:1;stroke:none;stroke-width:0.264583" />
        <circle
           r="15.024553"
           cy="125.41772"
           cx="340.84003"
           id="path896-1-2-3-2-48-4"
           style="fill:#0073ff;fill-opacity:1;stroke:none;stroke-width:0.359562" />
        <circle
           r="11.055803"
           cy="125.68229"
           cx="340.46204"
           id="path896-4-0-9-6-1"
           style="fill:#00002d;fill-opacity:1;stroke:none;stroke-width:0.264583" />
      </g>
      <path
         style="fill:#ececec;fill-opacity:1;stroke:none;stroke-width:0.670172"
         d="m 345.30468,942.76133 c -3.90223,1.3e-4 -7.06558,3.16349 -7.06569,7.06573 -0.66629,2.79586 -2.8691,2.64332 -3.68305,2.67993 -2.25728,1.2e-4 -4.08721,-1.82981 -4.08708,-4.08709 8e-4,-0.0164 0.002,-0.0327 0.003,-0.0491 l -3.67987,-0.23976 2.27171,7.75044 9.88931,11.75999 19.24327,-0.26714 8.41912,-21.51551 -6.21821,1.01029 c 0.0329,0.21082 0.05,0.42381 0.0511,0.63717 -9e-5,2.36136 -1.91434,4.2756 -4.2757,4.27569 -1.61261,-2.6e-4 -3.08789,-0.90791 -3.81529,-2.34715 -0.20823,-3.74308 -3.3034,-6.672 -7.05228,-6.67347 z"
         id="path1046-9-3-1-1"
         inkscape:connector-curvature="0"
         sodipodi:nodetypes="cccccccccccccccc"
         inkscape:export-xdpi="96"
         inkscape:export-ydpi="96" />
      <path
         style="fill:#ececec;fill-opacity:1;stroke:none;stroke-width:0.670172"
         d="m 289.77143,943.1676 c -3.90223,1.3e-4 -7.06558,3.1635 -7.0657,7.06572 -0.66627,2.79586 -2.86908,2.64333 -3.68305,2.67994 -2.25728,1.2e-4 -4.08719,-1.82981 -4.08706,-4.0871 8e-4,-0.0164 0.002,-0.0327 0.003,-0.0491 l -3.67987,-0.23976 2.27171,7.75044 9.8893,11.76 19.24328,-0.26715 8.41911,-21.51551 -6.2182,1.01029 c 0.0329,0.21082 0.05,0.42381 0.0511,0.63717 -9e-5,2.36137 -1.91433,4.2756 -4.27569,4.27569 -1.61262,-2.5e-4 -3.08789,-0.90791 -3.81529,-2.34715 -0.20823,-3.74307 -3.30341,-6.672 -7.05228,-6.67346 z"
         id="path1046-9-3-2-3-7"
         inkscape:connector-curvature="0"
         sodipodi:nodetypes="cccccccccccccccc"
         inkscape:export-xdpi="96"
         inkscape:export-ydpi="96" />
      <ellipse
         style="fill:#ff0056;fill-opacity:1;fill-rule:evenodd;stroke-width:0.264583"
         id="path1296-6-2"
         cx="275.12057"
         cy="959.98743"
         rx="6.9222808"
         ry="5.238483"
         inkscape:export-xdpi="96"
         inkscape:export-ydpi="96" />
      <ellipse
         style="fill:#ff0056;fill-opacity:1;fill-rule:evenodd;stroke-width:0.264583"
         id="path1296-6-1-2"
         cx="361.92972"
         cy="959.98743"
         rx="6.9222808"
         ry="5.238483"
         inkscape:export-xdpi="96"
         inkscape:export-ydpi="96" />
    </g>
  </g>
</svg>
