<?xml version="1.0" encoding="UTF-8" standalone="no"?>
<svg
   xmlns:dc="http://purl.org/dc/elements/1.1/"
   xmlns:cc="http://creativecommons.org/ns#"
   xmlns:rdf="http://www.w3.org/1999/02/22-rdf-syntax-ns#"
   xmlns:svg="http://www.w3.org/2000/svg"
   xmlns="http://www.w3.org/2000/svg"
   xmlns:sodipodi="http://sodipodi.sourceforge.net/DTD/sodipodi-0.dtd"
   xmlns:inkscape="http://www.inkscape.org/namespaces/inkscape"
   width="128mm"
   height="128mm"
   viewBox="0 0 128 128"
   version="1.1"
   id="svg14480"
   inkscape:version="1.0.1 (3bc2e813f5, 2020-09-07, custom)"
   sodipodi:docname="sugaroid-dead.svg">
  <defs
     id="defs14474">
    <filter
       inkscape:collect="always"
       style="color-interpolation-filters:sRGB"
       id="filter7186"
       x="-0.00011983659"
       width="1.0002397"
       y="-0.00012016385"
       height="1.0002403">
      <feGaussianBlur
         inkscape:collect="always"
         stdDeviation="0.0093938353"
         id="feGaussianBlur7188" />
    </filter>
  </defs>
  <sodipodi:namedview
     id="base"
     pagecolor="#ffffff"
     bordercolor="#666666"
     borderopacity="1.0"
     inkscape:pageopacity="0.0"
     inkscape:pageshadow="2"
     inkscape:zoom="0.64"
     inkscape:cx="670.64976"
     inkscape:cy="268.92814"
     inkscape:document-units="mm"
     inkscape:current-layer="layer1"
     inkscape:document-rotation="0"
     showgrid="false"
     inkscape:window-width="1366"
     inkscape:window-height="699"
     inkscape:window-x="0"
     inkscape:window-y="0"
     inkscape:window-maximized="1" />
  <metadata
     id="metadata14477">
    <rdf:RDF>
      <cc:Work
         rdf:about="">
        <dc:format>image/svg+xml</dc:format>
        <dc:type
           rdf:resource="http://purl.org/dc/dcmitype/StillImage" />
        <dc:title></dc:title>
      </cc:Work>
    </rdf:RDF>
  </metadata>
  <g
     inkscape:label="Layer 1"
     inkscape:groupmode="layer"
     id="layer1">
    <g
       id="g7145"
       transform="matrix(0.67752603,0,0,0.67752603,-5.0896506,-415.21675)"
       style="filter:url(#filter7186)">
      <circle
         inkscape:export-ydpi="96"
         inkscape:export-xdpi="96"
         r="89.936195"
         cy="707.59766"
         cx="101.64902"
         id="path826-4-7-6"
         style="fill:#ff004b;fill-opacity:1;stroke-width:0.264583" />
      <g
         inkscape:export-ydpi="96"
         inkscape:export-xdpi="96"
         id="g1002-0-6"
         transform="translate(-212.24007,595.41451)">
        <circle
           style="fill:#acac00;fill-opacity:0;stroke-width:0.275591"
           id="path826-3-46-4-3"
           cx="313.67911"
           cy="112.18314"
           r="93.677971"
           inkscape:export-xdpi="96"
           inkscape:export-ydpi="96" />
        <circle
           style="fill:#0f3000;fill-opacity:0;stroke-width:0.275591"
           id="path826-3-4-1-5"
           cx="314.45605"
           cy="112.44772"
           r="93.677971"
           inkscape:export-xdpi="96"
           inkscape:export-ydpi="96" />
        <path
           style="fill:#d6d6d6;fill-opacity:1;stroke:none;stroke-width:0.264583px;stroke-linecap:butt;stroke-linejoin:miter;stroke-opacity:1"
           d="m 311.64137,52.260417 c -34.784,0.464848 -73.94392,56.493923 -57.45238,87.123513 18.69522,34.72246 100.07698,34.96918 118.30654,0 16.37519,-31.41198 -25.43333,-87.596872 -60.85416,-87.123513 z"
           id="path894-8-3-4"
           inkscape:connector-curvature="0"
           sodipodi:nodetypes="aaaa" />
        <path
           style="fill:#ececec;fill-opacity:1;stroke:none;stroke-width:0.238023px;stroke-linecap:butt;stroke-linejoin:miter;stroke-opacity:1"
           d="m 311.37627,52.260212 c -30.2398,0.432739 -64.28385,52.591648 -49.94677,81.105518 16.25286,32.32403 87.00288,32.5537 102.85092,0 14.23593,-29.24222 -22.11071,-81.54618 -52.90415,-81.105518 z"
           id="path894-86-1"
           inkscape:connector-curvature="0"
           sodipodi:nodetypes="aaaa" />
      </g>
      <path
         inkscape:export-ydpi="96"
         inkscape:export-xdpi="96"
         id="rect952-1-5"
         d="m 64.35084,709.7538 c -1.017992,0 -2.036329,0.38992 -2.816365,1.16994 -1.560082,1.56009 -1.560082,4.07214 0,5.63223 l 5.245674,5.24566 -5.245674,5.24568 c -1.560082,1.56009 -1.560082,4.07215 0,5.63221 1.560078,1.56009 4.072136,1.56009 5.632214,0 l 5.245674,-5.24568 5.245674,5.24568 c 1.560079,1.56009 4.072134,1.56009 5.632214,0 1.56008,-1.56006 1.56008,-4.07212 0,-5.63221 l -5.245673,-5.24568 5.245673,-5.24566 c 1.56008,-1.56009 1.56008,-4.07214 0,-5.63223 -1.56008,-1.56007 -4.072135,-1.56007 -5.632214,0 l -5.245674,5.24567 -5.245674,-5.24567 C 66.38665,710.14372 65.368832,709.7538 64.35084,709.7538 Z"
         style="fill:#00002d;fill-opacity:1;stroke:#0073ff;stroke-width:3.68758;stroke-linecap:round;stroke-linejoin:round;stroke-miterlimit:4;stroke-dasharray:none;stroke-dashoffset:0;stroke-opacity:1"
         inkscape:connector-curvature="0" />
      <path
         inkscape:export-ydpi="96"
         inkscape:export-xdpi="96"
         id="rect952-0-2"
         d="m 120.5748,709.7538 c -1.01799,0 -2.03633,0.38992 -2.81637,1.16993 -1.56007,1.5601 -1.56007,4.07215 0,5.63224 l 5.24568,5.24566 -5.24568,5.24568 c -1.56007,1.56009 -1.56007,4.07215 0,5.63221 1.56008,1.56009 4.07214,1.56009 5.63222,0 l 5.24567,-5.24568 5.24568,5.24568 c 1.56008,1.56009 4.07213,1.56009 5.63221,0 1.56008,-1.56006 1.56008,-4.07212 0,-5.63221 l -5.24567,-5.24568 5.24567,-5.24566 c 1.56008,-1.56009 1.56008,-4.07214 0,-5.63224 -1.56008,-1.56006 -4.07213,-1.56006 -5.63221,0 l -5.24568,5.24568 -5.24567,-5.24568 c -0.78004,-0.78001 -1.79786,-1.16993 -2.81585,-1.16993 z"
         style="fill:#00002d;fill-opacity:1;stroke:#0073ff;stroke-width:3.68758;stroke-linecap:round;stroke-linejoin:round;stroke-miterlimit:4;stroke-dasharray:none;stroke-dashoffset:0;stroke-opacity:1"
         inkscape:connector-curvature="0" />
    </g>
  </g>
</svg>
