<?xml version="1.0" encoding="UTF-8" standalone="no"?>
<svg
   xmlns:dc="http://purl.org/dc/elements/1.1/"
   xmlns:cc="http://creativecommons.org/ns#"
   xmlns:rdf="http://www.w3.org/1999/02/22-rdf-syntax-ns#"
   xmlns:svg="http://www.w3.org/2000/svg"
   xmlns="http://www.w3.org/2000/svg"
   xmlns:sodipodi="http://sodipodi.sourceforge.net/DTD/sodipodi-0.dtd"
   xmlns:inkscape="http://www.inkscape.org/namespaces/inkscape"
   width="128mm"
   height="128mm"
   viewBox="0 0 128 128"
   version="1.1"
   id="svg14480"
   inkscape:version="1.0.1 (3bc2e813f5, 2020-09-07)"
   sodipodi:docname="sugaroid-santa.svg">
  <defs
     id="defs14474" />
  <sodipodi:namedview
     id="base"
     pagecolor="#ffffff"
     bordercolor="#666666"
     borderopacity="1.0"
     inkscape:pageopacity="0.0"
     inkscape:pageshadow="2"
     inkscape:zoom="0.64"
     inkscape:cx="214.64036"
     inkscape:cy="286.36912"
     inkscape:document-units="mm"
     inkscape:current-layer="layer1"
     inkscape:document-rotation="0"
     showgrid="false"
     inkscape:window-width="1366"
     inkscape:window-height="710"
     inkscape:window-x="0"
     inkscape:window-y="28"
     inkscape:window-maximized="1" />
  <metadata
     id="metadata14477">
    <rdf:RDF>
      <cc:Work
         rdf:about="">
        <dc:format>image/svg+xml</dc:format>
        <dc:type
           rdf:resource="http://purl.org/dc/dcmitype/StillImage" />
        <dc:title></dc:title>
      </cc:Work>
    </rdf:RDF>
  </metadata>
  <g
     inkscape:label="Layer 1"
     inkscape:groupmode="layer"
     id="layer1">
    <g
       id="g16624"
       transform="matrix(0.51889067,0,0,0.51889067,261.21395,15.823984)">
      <circle
         inkscape:export-filename="/home/ss/repo/sugaroid/sugaroid/gui/ui/sugaroid_smile.png"
         inkscape:export-ydpi="96"
         inkscape:export-xdpi="96"
         r="118.09015"
         cy="93.410927"
         cx="-378.84"
         id="path826-4-0-8-36"
         style="fill:#ff004b;fill-opacity:1;stroke-width:0.347409" />
      <g
         inkscape:export-ydpi="96"
         inkscape:export-xdpi="96"
         inkscape:export-filename="/home/ss/repo/sugaroid/sugaroid/gui/ui/sugaroid_smile.png"
         id="g1002-7-6-7"
         transform="matrix(1.3130436,0,0,1.3130436,-790.9901,-53.890375)">
        <circle
           style="fill:#acac00;fill-opacity:0;stroke-width:0.275591"
           id="path826-3-46-8-6-53"
           cx="313.67911"
           cy="112.18314"
           r="93.677971"
           inkscape:export-xdpi="96"
           inkscape:export-ydpi="96" />
        <circle
           style="fill:#0f3000;fill-opacity:0;stroke-width:0.275591"
           id="path826-3-4-3-4-56"
           cx="314.45605"
           cy="112.44772"
           r="93.677971"
           inkscape:export-xdpi="96"
           inkscape:export-ydpi="96" />
        <path
           style="fill:#d6d6d6;fill-opacity:1;stroke:none;stroke-width:0.264583px;stroke-linecap:butt;stroke-linejoin:miter;stroke-opacity:1"
           d="m 311.64137,52.260417 c -34.784,0.464848 -73.94392,56.493923 -57.45238,87.123513 18.69522,34.72246 100.07698,34.96918 118.30654,0 16.37519,-31.41198 -25.43333,-87.596872 -60.85416,-87.123513 z"
           id="path894-8-5-4-2"
           inkscape:connector-curvature="0"
           sodipodi:nodetypes="aaaa" />
        <path
           style="fill:#ececec;fill-opacity:1;stroke:none;stroke-width:0.238023px;stroke-linecap:butt;stroke-linejoin:miter;stroke-opacity:1"
           d="m 311.37627,52.260212 c -30.2398,0.432739 -64.28385,52.591648 -49.94677,81.105518 16.25286,32.32403 87.00288,32.5537 102.85092,0 14.23593,-29.24222 -22.11071,-81.54618 -52.90415,-81.105518 z"
           id="path894-80-6-9"
           inkscape:connector-curvature="0"
           sodipodi:nodetypes="aaaa" />
        <circle
           style="fill:#0073ff;fill-opacity:1;stroke:none;stroke-width:0.359562"
           id="path896-1-25-3-1"
           cx="285.27753"
           cy="125.68229"
           r="15.024553" />
        <circle
           style="fill:#00002d;fill-opacity:1;stroke:none;stroke-width:0.264583"
           id="path896-12-2-2"
           cx="285.27753"
           cy="125.68229"
           r="11.055803" />
        <circle
           style="fill:#0073ff;fill-opacity:1;stroke:none;stroke-width:0.359562"
           id="path896-1-2-3-2-70"
           cx="340.84003"
           cy="125.41772"
           r="15.024553" />
        <circle
           style="fill:#00002d;fill-opacity:1;stroke:none;stroke-width:0.264583"
           id="path896-4-0-9-9"
           cx="340.46204"
           cy="125.68229"
           r="11.055803" />
      </g>
      <path
         inkscape:export-ydpi="96"
         inkscape:export-xdpi="96"
         inkscape:export-filename="/home/ss/repo/sugaroid/sugaroid/gui/ui/sugaroid_smile.png"
         sodipodi:nodetypes="cccccccccccccccc"
         inkscape:connector-curvature="0"
         id="path1046-9-3-36"
         d="m -343.74412,103.15587 c -5.12381,1.7e-4 -9.27742,4.1538 -9.27758,9.2776 -0.87486,3.67109 -3.76724,3.47081 -4.83601,3.51888 -2.96389,1.4e-4 -5.36667,-2.40263 -5.3665,-5.36654 0.001,-0.0215 0.003,-0.0429 0.004,-0.0645 l -4.83183,-0.31482 2.98286,10.17667 12.98508,15.44138 25.26726,-0.35078 11.05468,-28.25079 -8.16479,1.32655 c 0.0432,0.27682 0.0657,0.55647 0.0671,0.83664 -1.2e-4,3.10056 -2.5136,5.61404 -5.61417,5.61416 -2.11744,-3.4e-4 -4.05453,-1.19212 -5.00962,-3.08191 -0.27343,-4.91482 -4.33754,-8.76064 -9.25997,-8.76255 z"
         style="fill:#ececec;fill-opacity:1;stroke:none;stroke-width:0.879964" />
      <path
         inkscape:export-ydpi="96"
         inkscape:export-xdpi="96"
         inkscape:export-filename="/home/ss/repo/sugaroid/sugaroid/gui/ui/sugaroid_smile.png"
         sodipodi:nodetypes="cccccccccccccccc"
         inkscape:connector-curvature="0"
         id="path1046-9-3-2-0"
         d="m -416.66169,103.68932 c -5.1238,1.7e-4 -9.27742,4.1538 -9.27758,9.2776 -0.87485,3.67109 -3.76724,3.47081 -4.836,3.51888 -2.96391,1.4e-4 -5.36667,-2.40263 -5.3665,-5.36654 0.001,-0.0215 0.003,-0.0429 0.004,-0.0645 l -4.83183,-0.31482 2.98285,10.17667 12.98508,15.44138 25.26727,-0.35078 11.05467,-28.25079 -8.16478,1.32655 c 0.0432,0.27682 0.0657,0.55647 0.0671,0.83664 -1.2e-4,3.10056 -2.5136,5.61404 -5.61417,5.61416 -2.11744,-3.4e-4 -4.05454,-1.19212 -5.00964,-3.08191 -0.27342,-4.91482 -4.33752,-8.76064 -9.25995,-8.76255 z"
         style="fill:#ececec;fill-opacity:1;stroke:none;stroke-width:0.879964" />
      <path
         d="m -445.85279,67.18559 c 5.39431,5.351252 12.72974,6.30823 20.01442,7.429493 4.85865,0.747939 9.74757,0.63355 14.63949,0.657213 1.15856,0.0037 2.71247,-0.545505 2.34143,1.703576 -0.26183,1.582665 1.58888,1.042419 2.40363,0.92542 6.00698,-0.859692 12.14394,-0.0749 18.11473,-1.259281 12.96273,0.03728 25.92704,0.07378 38.82635,0.110296 0.0741,0.457456 0.13158,0.571809 0.10216,0.662504 -0.35263,1.097599 -2.58854,1.494581 -1.719,2.855058 0.60034,0.93857 2.22184,0.295851 3.36988,0.460101 6.03732,0.866245 12.14271,0.407488 18.1924,0.786058 6.72274,0.419303 10.49643,-3.237617 13.17005,-7.783101 1.80719,-3.074601 3.35444,-6.575096 2.95059,-10.346333 1.67878,0.743994 1.71128,0.788673 3.93307,4.07227 1.28112,-0.553398 0.91599,-1.644405 0.93919,-2.554062 0.15306,-5.959877 0.65757,-11.99469 -1.38479,-17.757416 -2.29144,-6.462048 -4.59371,-11.579339 -13.98083,-10.922092 -2.62875,0.182581 -5.77271,1.176447 -8.03631,-1.297395 -0.19956,1.326312 -1.27957,1.307901 -2.38122,1.368376 -4.75773,0.268283 -9.51548,0.570467 -14.27169,0.860993 -9.61764,0.08532 -19.20584,0.436406 -28.60531,2.56718 -0.63439,0.333863 -1.45906,0.549454 -2.19553,0.830774 -1.47759,0.257474 -2.95678,0.807074 -4.41424,-0.07639 h -0.001 0.001 c 1.1341,-1.315799 2.26976,-2.631604 3.96245,-4.594147 -3.60197,0.746639 -6.28486,1.302647 -8.96777,1.860004 -7.62804,0.602024 -15.26208,0.956936 -22.91734,0.464011 -0.009,0.0026 -0.0175,0.0075 -0.0263,0.01116 -0.10085,-0.441661 -0.45086,-0.720336 -0.92713,-0.897809 -0.78691,-0.295853 -1.63063,-0.291756 -2.46105,-0.365535 -8.40704,-0.736089 -8.40099,-0.736089 -12.3573,6.162361 -1.6622,2.898428 -3.38225,5.767944 -5.45834,8.439008 -1.48611,2.450215 -3.3858,4.637518 -5.29742,6.815617 -1.80716,2.161031 -3.73023,4.223471 -5.89404,6.10318 -0.83226,0.724284 -1.87184,1.419653 -1.66514,2.710491"
         style="fill:#d5d5d5;fill-opacity:1;fill-rule:nonzero;stroke:none;stroke-width:0.142612"
         id="path86" />
      <path
         d="m -450.22691,62.591444 c 5.39431,5.35125 12.72975,6.308228 20.01444,7.429492 4.85865,0.747941 9.74757,0.63355 14.63949,0.657215 22.88623,5.760381 49.30033,-0.900405 70.19565,2.851143 6.03732,0.866245 7.08084,1.671116 13.13053,2.049685 6.72274,0.419302 8.80183,-1.894713 11.47545,-6.440198 1.80719,-3.074601 3.35443,-6.575095 2.95058,-10.346332 1.67877,0.743994 1.71127,0.788673 3.93306,4.072269 1.28112,-0.553397 0.91599,-1.644404 0.93919,-2.554061 0.15307,-5.959877 0.65758,-11.99469 -1.38478,-17.757416 -2.29145,-6.46205 -4.59371,-11.579341 -13.98082,-10.922094 -2.62875,0.182581 -5.77272,1.176448 -8.03631,-1.297395 -0.19956,1.326312 -1.27958,1.307902 -2.38122,1.368377 -4.75774,0.268282 -9.51548,0.570466 -14.27169,0.860993 -9.61764,0.08532 -19.20584,0.436405 -28.60532,2.56718 -0.63438,0.333862 -1.45905,0.549453 -2.19552,0.830773 -1.47761,0.257475 -2.95678,0.807074 -4.41426,-0.07639 h -0.001 0.001 c 1.13412,-1.315798 2.26978,-2.631603 3.96247,-4.594146 -3.60197,0.746638 -6.28486,1.302647 -8.96778,1.860003 -7.62805,0.602024 -15.26207,0.956936 -22.91734,0.464012 -0.009,0.0026 -0.0175,0.0075 -0.0263,0.01116 -0.10084,-0.44166 -0.45086,-0.720335 -0.92712,-0.897809 -0.78691,-0.295852 -1.63063,-0.291756 -2.46105,-0.365534 -8.40704,-0.73609 -8.40099,-0.73609 -12.35731,6.16236 -1.66219,2.898428 -3.38224,5.767945 -5.45834,8.439009 -1.48612,2.450214 -3.38581,4.637518 -5.29743,6.815617 -1.80715,2.16103 -3.73022,4.22347 -5.89404,6.10318 -0.83226,0.724284 -1.87183,1.419652 -1.66514,2.710491"
         style="fill:#ffffff;fill-opacity:1;fill-rule:nonzero;stroke:none;stroke-width:0.142612"
         id="path86-6"
         sodipodi:nodetypes="cscccccccccccccccccccccccscccc" />
      <path
         d="m -323.51411,12.723359 c -23.7903,-54.298904 -107.0271,-17.4616708 -118.14118,-3.5964438 -21.87052,17.3249678 -24.65244,71.1533078 -15.11344,75.9643468 2.53548,0.314112 4.61511,-0.565249 6.4489,-2.291145 3.40934,-10.434417 23.7295,-70.389596 40.44338,-69.648218 18.30098,0.814982 -6.26464,20.462652 -6.26464,20.462652 0,0 94.86737,-1.23301 92.46765,-17.189598 -0.23378,-1.557665 -0.15921,-2.78143 0.1592,-3.701594"
         style="fill:#ee252e;fill-opacity:1;fill-rule:nonzero;stroke:none;stroke-width:0.142612"
         id="path88" />
      <path
         d="m -408.75657,40.118627 c -28.82456,-3.72261 -31.12671,32.926638 -41.56326,42.68149 3.40934,-10.434417 23.7295,-70.389596 40.44338,-69.648218 18.30098,0.814982 -6.26464,20.462652 -6.26464,20.462652 0,0 94.86737,-1.23301 92.46765,-17.189598 -0.23378,-1.557665 -0.15921,-2.78143 0.1592,-3.701594 2.25275,5.122584 3.96399,11.06275 5.0455,17.911231 3.68089,19.5951 -88.01126,8.857041 -90.288,9.484037"
         style="fill:#c01e24;fill-opacity:1;fill-rule:nonzero;stroke:none;stroke-width:0.142612"
         id="path90" />
      <path
         d="m -468.56897,76.902051 c 0.0351,1.447221 -0.11056,2.333217 1.81553,0.600724 5.28119,-4.750565 13.70991,-5.244838 19.71209,-1.440701 -2.82664,1.510345 -2.81642,1.502483 -0.37806,3.645073 1.47296,1.294785 3.28244,2.377929 3.99864,4.178759 0.73187,1.84163 1.18519,3.588576 -2.3988,2.707875 -0.29255,-0.07117 -0.58148,-0.21835 -0.87156,-0.216861 -2.92709,0.0075 -6.47784,-1.087092 -7.88241,2.233319 -1.26979,3.002277 0.82191,4.87804 3.82693,6.180725 0.53613,0.232513 1.0034,0.580977 1.50251,0.876757 -3.19055,2.518552 -6.76309,1.311848 -10.26915,0.759792 -3.30304,-0.796608 -6.07166,-2.275391 -8.16705,-4.615203 -5.0117,-4.87543 -5.69401,-10.383141 -2.92586,-16.38639 0.14078,1.254022 0.28114,2.509346 0.4538,4.059112 0.61657,-1.005568 1.10011,-1.795577 1.58361,-2.582981"
         style="fill:#dcd9d8;fill-opacity:1;fill-rule:nonzero;stroke:none;stroke-width:0.142612"
         id="path94" />
      <path
         d="m -471.66811,83.885239 c -1.38982,-6.961403 2.74115,-11.2072 7.57234,-14.961499 1.98822,-1.545334 4.35698,-2.599819 6.5524,-3.877841 1.28953,-0.827289 2.56815,-1.726609 4.13802,-0.594543 -0.081,1.424296 -1.77011,1.345661 -2.41679,2.751778 6.76144,-0.543465 11.89377,1.741519 14.76807,8.043056 -1.22451,0.907228 -1.90927,-0.761473 -3.19726,-0.163887 2.94952,6.31684 3.57926,12.619561 -1.78583,19.137567 0.13139,-1.81469 0.20798,-2.864578 0.28493,-3.937262 -1.53026,-0.274223 -1.58575,1.282878 -2.50649,1.579598 -3.84202,1.251663 -6.47706,0.419923 -7.77464,-2.453121 -1.21588,-2.692891 -0.19745,-4.772818 3.23227,-6.787603 0.83496,-0.491006 2.32235,-0.508277 2.26264,-1.765499 -0.0661,-1.378543 -1.56091,-1.483507 -2.58091,-1.94846 -1.96468,-0.892075 -4.66138,-0.52296 -5.35262,-3.598544 -0.20824,-0.926092 -1.62785,-0.211861 -2.38719,0.121154 -3.87151,1.703786 -7.29088,3.867648 -8.29793,8.435602 -0.17425,0.787105 -0.25357,2.026756 -1.47254,1.852827 -0.77313,-0.110664 -1.06116,-1.002726 -1.03777,-1.833712"
         style="fill:#f3efed;fill-opacity:1;fill-rule:nonzero;stroke:none;stroke-width:0.130379"
         id="path92" />
      <path
         d="m -452.65344,96.261453 c -8.05642,2.724531 -13.73764,-1.528739 -18.94291,-6.68971 -2.14259,-2.123921 -3.76055,-4.775598 -5.61747,-7.186845 -1.18172,-1.404479 -2.44732,-2.784942 -1.34438,-4.824584 1.70466,-0.123413 1.87166,1.895512 3.64195,2.447028 -1.68818,-7.949317 0.23511,-14.399204 7.27878,-18.785691 1.26662,1.314968 -0.61032,2.38578 0.29843,3.823874 7.05012,-4.478217 14.44115,-6.198149 23.01223,-0.828997 -2.17629,0.123663 -3.43541,0.194605 -4.72175,0.268537 -0.0898,1.860373 1.7687,1.686219 2.26319,2.734374 2.07942,4.371595 1.49753,7.630434 -1.71579,9.615044 -3.0119,1.859769 -5.64004,0.970483 -8.56253,-2.793617 -0.71216,-0.916218 -0.96191,-2.680744 -2.44645,-2.415999 -1.62761,0.291034 -1.52184,2.083235 -1.91695,3.366714 -0.75698,2.471732 0.0974,5.618711 -3.45002,6.914214 -1.06818,0.390166 -7.5e-4,1.966648 0.51196,2.817457 2.62115,4.336937 5.71918,8.065772 11.30153,8.557909 0.96199,0.08568 2.44705,-0.01129 2.42835,1.463869 -0.0131,0.935585 -1.0277,1.415305 -2.01883,1.515336"
         style="fill:#f3efed;fill-opacity:1;fill-rule:nonzero;stroke:none;stroke-width:0.156198"
         id="path92-2" />
      <path
         d="m -452.65344,96.261453 c 1.34478,-1.07254 2.27046,-1.595102 -0.54599,-1.889654 -7.72264,-0.807591 -13.3568,-7.21119 -13.44537,-14.770488 3.15887,1.177185 3.1452,1.174684 3.67328,-2.326869 0.31924,-2.115742 0.23245,-4.348713 1.49349,-6.222726 1.28993,-1.915941 2.66124,-3.540208 4.02708,-0.03012 0.11253,0.285853 0.15058,0.623806 0.32943,0.855555 1.80198,2.341936 2.94517,5.980014 6.94099,4.71045 3.61285,-1.148141 4.10133,-4.179442 3.48881,-7.529682 -0.10899,-0.597903 -0.067,-1.224056 -0.0935,-1.83784 4.33382,0.741519 5.38492,4.477701 7.01319,7.688118 1.27302,3.224058 1.57438,6.511806 0.65012,9.880949 -1.53016,7.537928 -6.31145,12.059811 -13.67608,14.171801 1.09755,-1.017871 2.19662,-2.036343 3.55388,-3.293225 -1.32738,0.231156 -2.36961,0.413466 -3.40937,0.593882"
         style="fill:#dcd9d8;fill-opacity:1;fill-rule:nonzero;stroke:none;stroke-width:0.156198"
         id="path94-6" />
    </g>
  </g>
</svg>
