<?xml version="1.0" encoding="UTF-8" standalone="no"?>
<svg
   xmlns:dc="http://purl.org/dc/elements/1.1/"
   xmlns:cc="http://creativecommons.org/ns#"
   xmlns:rdf="http://www.w3.org/1999/02/22-rdf-syntax-ns#"
   xmlns:svg="http://www.w3.org/2000/svg"
   xmlns="http://www.w3.org/2000/svg"
   xmlns:sodipodi="http://sodipodi.sourceforge.net/DTD/sodipodi-0.dtd"
   xmlns:inkscape="http://www.inkscape.org/namespaces/inkscape"
   width="128mm"
   height="128mm"
   viewBox="0 0 128 128"
   version="1.1"
   id="svg14480"
   inkscape:version="1.0.1 (3bc2e813f5, 2020-09-07, custom)"
   sodipodi:docname="sugaroid-depressed.svg">
  <defs
     id="defs14474" />
  <sodipodi:namedview
     id="base"
     pagecolor="#ffffff"
     bordercolor="#666666"
     borderopacity="1.0"
     inkscape:pageopacity="0.0"
     inkscape:pageshadow="2"
     inkscape:zoom="0.64"
     inkscape:cx="670.64976"
     inkscape:cy="268.92814"
     inkscape:document-units="mm"
     inkscape:current-layer="layer1"
     inkscape:document-rotation="0"
     showgrid="false"
     inkscape:window-width="1366"
     inkscape:window-height="699"
     inkscape:window-x="0"
     inkscape:window-y="0"
     inkscape:window-maximized="1" />
  <metadata
     id="metadata14477">
    <rdf:RDF>
      <cc:Work
         rdf:about="">
        <dc:format>image/svg+xml</dc:format>
        <dc:type
           rdf:resource="http://purl.org/dc/dcmitype/StillImage" />
        <dc:title></dc:title>
      </cc:Work>
    </rdf:RDF>
  </metadata>
  <g
     inkscape:label="Layer 1"
     inkscape:groupmode="layer"
     id="layer1">
    <g
       id="g8075"
       transform="matrix(0.67752603,0,0,0.67752603,-153.64673,-686.65926)">
      <circle
         inkscape:export-ydpi="96"
         inkscape:export-xdpi="96"
         r="89.936195"
         cy="1107.4154"
         cx="321.44937"
         id="path826-4-0-8-3-2-8-5-8"
         style="fill:#ff004b;fill-opacity:1;stroke-width:0.264583" />
      <g
         inkscape:export-ydpi="96"
         inkscape:export-xdpi="96"
         id="g1002-7-6-8-8-1-0-2"
         transform="translate(7.5602311,995.23234)">
        <circle
           style="fill:#acac00;fill-opacity:0;stroke-width:0.275591"
           id="path826-3-46-8-6-5-5-7-5-3"
           cx="313.67911"
           cy="112.18314"
           r="93.677971"
           inkscape:export-xdpi="96"
           inkscape:export-ydpi="96" />
        <circle
           style="fill:#0f3000;fill-opacity:0;stroke-width:0.275591"
           id="path826-3-4-3-4-5-8-1-9-4"
           cx="314.45605"
           cy="112.44772"
           r="93.677971"
           inkscape:export-xdpi="96"
           inkscape:export-ydpi="96" />
        <path
           style="fill:#d6d6d6;fill-opacity:1;stroke:none;stroke-width:0.264583px;stroke-linecap:butt;stroke-linejoin:miter;stroke-opacity:1"
           d="m 311.64137,52.260417 c -34.784,0.464848 -73.94392,56.493923 -57.45238,87.123513 18.69522,34.72246 100.07698,34.96918 118.30654,0 16.37519,-31.41198 -25.43333,-87.596872 -60.85416,-87.123513 z"
           id="path894-8-5-4-3-8-6-0-7"
           inkscape:connector-curvature="0"
           sodipodi:nodetypes="aaaa" />
        <path
           style="fill:#ececec;fill-opacity:1;stroke:none;stroke-width:0.238023px;stroke-linecap:butt;stroke-linejoin:miter;stroke-opacity:1"
           d="m 311.37627,52.260212 c -30.2398,0.432739 -64.28385,52.591648 -49.94677,81.105518 16.25286,32.32403 87.00288,32.5537 102.85092,0 14.23593,-29.24222 -22.11071,-81.54618 -52.90415,-81.105518 z"
           id="path894-80-6-8-9-8-0-6"
           inkscape:connector-curvature="0"
           sodipodi:nodetypes="aaaa" />
        <path
           sodipodi:nodetypes="ccsccc"
           inkscape:connector-curvature="0"
           id="path1603"
           d="m 276.48445,138.13044 v 20.2991 c 0,0 8.98025,3.5547 13.9381,4.5837 4.95786,1.029 3.44865,0.68693 3.44865,0.68693 v -34.2372 z"
           style="fill:#00b4ff;fill-opacity:1;stroke:none;stroke-width:0.264583px;stroke-linecap:butt;stroke-linejoin:miter;stroke-opacity:1" />
        <path
           inkscape:connector-curvature="0"
           id="path1670"
           d="m 278.14665,133.61096 v 17.3302 c 0,0 0.13229,4.8948 3.50573,4.96094 3.37344,0.0661 3.70417,-5.55625 3.70417,-5.55625 V 132.9495 Z"
           style="fill:#00e1ff;fill-opacity:1;stroke:none;stroke-width:0.264583px;stroke-linecap:butt;stroke-linejoin:miter;stroke-opacity:1" />
        <circle
           style="opacity:1;vector-effect:none;fill:#0073ff;fill-opacity:1;stroke:none;stroke-width:0.264583px;stroke-linecap:butt;stroke-linejoin:miter;stroke-miterlimit:4;stroke-dasharray:none;stroke-dashoffset:0;stroke-opacity:1"
           id="path896-1-25-3-7-4-4-9-8"
           cx="285.27753"
           cy="125.68229"
           r="15.024553" />
        <circle
           style="fill:#00002d;fill-opacity:1;stroke:none;stroke-width:0.264583"
           id="path896-12-2-5-4-3-8-3"
           cx="285.27753"
           cy="125.68229"
           r="11.055803" />
        <path
           sodipodi:nodetypes="ccsccc"
           inkscape:connector-curvature="0"
           id="path1603-2"
           d="m 350.21392,134.85642 v 23.66667 c 0,0 -8.98025,3.5547 -13.9381,4.5837 -4.95786,1.029 -3.44865,0.68693 -3.44865,0.68693 v -34.2372 z"
           style="fill:#00b4ff;fill-opacity:1;stroke:none;stroke-width:0.264583px;stroke-linecap:butt;stroke-linejoin:miter;stroke-opacity:1" />
        <path
           inkscape:connector-curvature="0"
           id="path1670-7"
           d="m 333.05374,135.30181 v 17.3302 c 0,0 0.13229,4.89476 3.50573,4.9609 3.37344,0.0661 3.70417,-5.5562 3.70417,-5.5562 v -17.3964 z"
           style="fill:#00e1ff;fill-opacity:1;stroke:none;stroke-width:0.264583px;stroke-linecap:butt;stroke-linejoin:miter;stroke-opacity:1" />
        <circle
           style="fill:#0073ff;fill-opacity:1;stroke:none;stroke-width:0.359562"
           id="path896-1-2-3-2-7-2-1-1-3"
           cx="340.84003"
           cy="125.41772"
           r="15.024553" />
        <circle
           style="fill:#00002d;fill-opacity:1;stroke:none;stroke-width:0.264583"
           id="path896-4-0-9-4-4-4-3-0"
           cx="340.46204"
           cy="125.68229"
           r="11.055803" />
      </g>
      <path
         inkscape:export-ydpi="96"
         inkscape:export-xdpi="96"
         sodipodi:nodetypes="cccccccccccccccc"
         inkscape:connector-curvature="0"
         id="path1046-9-3-5-5-4-5-9"
         d="m 348.55429,1127.241 c 3.90223,-2e-4 7.06558,-3.1635 7.0657,-7.0657 0.66628,-2.7959 2.86909,-2.6434 3.68305,-2.68 2.25728,-10e-5 4.0872,1.8298 4.08707,4.0871 -8e-4,0.016 -0.002,0.033 -0.003,0.049 l 3.67987,0.2398 -2.27171,-7.7505 -9.88931,-11.7599 -19.24327,0.2671 -8.41912,21.5155 6.21821,-1.0103 c -0.0329,-0.2108 -0.05,-0.4238 -0.0511,-0.6372 9e-5,-2.3613 1.91433,-4.2756 4.27569,-4.2756 1.61262,2e-4 3.0879,0.9079 3.81529,2.3471 0.20823,3.7431 3.30341,6.672 7.05228,6.6735 z"
         style="fill:#ececec;fill-opacity:1;stroke:none;stroke-width:0.670172" />
      <path
         inkscape:export-ydpi="96"
         inkscape:export-xdpi="96"
         sodipodi:nodetypes="cccccccccccccccc"
         inkscape:connector-curvature="0"
         id="path1046-9-3-2-2-9-7-3-3"
         d="m 292.91714,1128.1819 c 3.90223,-10e-5 7.06558,-3.1635 7.0657,-7.0657 0.66627,-2.7959 2.86908,-2.6433 3.68305,-2.68 2.25728,-1e-4 4.08719,1.8299 4.08706,4.0871 -8e-4,0.016 -0.002,0.033 -0.003,0.049 l 3.67987,0.2398 -2.27171,-7.7504 -9.8893,-11.76 -19.24328,0.2671 -8.41911,21.5155 6.2182,-1.0103 c -0.0329,-0.2108 -0.05,-0.4238 -0.0511,-0.6371 9e-5,-2.3614 1.91433,-4.2756 4.27569,-4.2757 1.61262,2e-4 3.08789,0.9079 3.81529,2.3471 0.20823,3.7431 3.30341,6.672 7.05228,6.6735 z"
         style="fill:#ececec;fill-opacity:1;stroke:none;stroke-width:0.670172" />
    </g>
  </g>
</svg>
