<?xml version="1.0" encoding="UTF-8" standalone="no"?>
<svg
   xmlns:dc="http://purl.org/dc/elements/1.1/"
   xmlns:cc="http://creativecommons.org/ns#"
   xmlns:rdf="http://www.w3.org/1999/02/22-rdf-syntax-ns#"
   xmlns:svg="http://www.w3.org/2000/svg"
   xmlns="http://www.w3.org/2000/svg"
   xmlns:sodipodi="http://sodipodi.sourceforge.net/DTD/sodipodi-0.dtd"
   xmlns:inkscape="http://www.inkscape.org/namespaces/inkscape"
   width="128mm"
   height="128mm"
   viewBox="0 0 128 128"
   version="1.1"
   id="svg46543"
   inkscape:version="1.0.1 (3bc2e813f5, 2020-09-07)"
   sodipodi:docname="sugaroid-depressed.svg">
  <defs
     id="defs46537" />
  <sodipodi:namedview
     id="base"
     pagecolor="#ffffff"
     bordercolor="#666666"
     borderopacity="1.0"
     inkscape:pageopacity="0.0"
     inkscape:pageshadow="2"
     inkscape:zoom="0.7"
     inkscape:cx="177.98648"
     inkscape:cy="347.93684"
     inkscape:document-units="mm"
     inkscape:current-layer="layer1"
     inkscape:document-rotation="0"
     showgrid="false"
     inkscape:window-width="1366"
     inkscape:window-height="710"
     inkscape:window-x="0"
     inkscape:window-y="28"
     inkscape:window-maximized="1" />
  <metadata
     id="metadata46540">
    <rdf:RDF>
      <cc:Work
         rdf:about="">
        <dc:format>image/svg+xml</dc:format>
        <dc:type
           rdf:resource="http://purl.org/dc/dcmitype/StillImage" />
        <dc:title></dc:title>
      </cc:Work>
    </rdf:RDF>
  </metadata>
  <g
     inkscape:label="Layer 1"
     inkscape:groupmode="layer"
     id="layer1">
    <g
       id="g49991"
       transform="translate(-9.104543,13.200092)">
      <circle
         inkscape:export-filename="/home/ss/repo/sugaroid/sugaroid/gui/ui/sugaroid_depressed.png"
         inkscape:export-ydpi="96"
         inkscape:export-xdpi="96"
         r="60.789185"
         cy="50.937336"
         cx="73.206779"
         id="path826-4-0-8-3-2-8-5-8"
         style="fill:#ff004b;fill-opacity:1;stroke-width:0.178837" />
      <g
         inkscape:export-ydpi="96"
         inkscape:export-xdpi="96"
         inkscape:export-filename="/home/ss/repo/sugaroid/sugaroid/gui/ui/sugaroid_depressed.png"
         id="g1002-7-6-8-8-1-0-2"
         transform="matrix(0.67591456,0,0,0.67591456,-138.95547,-24.888851)">
        <circle
           style="fill:#acac00;fill-opacity:0;stroke-width:0.275591"
           id="path826-3-46-8-6-5-5-7-5-3"
           cx="313.67911"
           cy="112.18314"
           r="93.677971"
           inkscape:export-xdpi="96"
           inkscape:export-ydpi="96" />
        <circle
           style="fill:#0f3000;fill-opacity:0;stroke-width:0.275591"
           id="path826-3-4-3-4-5-8-1-9-4"
           cx="314.45605"
           cy="112.44772"
           r="93.677971"
           inkscape:export-xdpi="96"
           inkscape:export-ydpi="96" />
        <path
           style="fill:#d6d6d6;fill-opacity:1;stroke:none;stroke-width:0.264583px;stroke-linecap:butt;stroke-linejoin:miter;stroke-opacity:1"
           d="m 311.64137,52.260417 c -34.784,0.464848 -73.94392,56.493923 -57.45238,87.123513 18.69522,34.72246 100.07698,34.96918 118.30654,0 16.37519,-31.41198 -25.43333,-87.596872 -60.85416,-87.123513 z"
           id="path894-8-5-4-3-8-6-0-7"
           inkscape:connector-curvature="0"
           sodipodi:nodetypes="aaaa" />
        <path
           style="fill:#ececec;fill-opacity:1;stroke:none;stroke-width:0.238023px;stroke-linecap:butt;stroke-linejoin:miter;stroke-opacity:1"
           d="m 311.37627,52.260212 c -30.2398,0.432739 -64.28385,52.591648 -49.94677,81.105518 16.25286,32.32403 87.00288,32.5537 102.85092,0 14.23593,-29.24222 -22.11071,-81.54618 -52.90415,-81.105518 z"
           id="path894-80-6-8-9-8-0-6"
           inkscape:connector-curvature="0"
           sodipodi:nodetypes="aaaa" />
        <path
           sodipodi:nodetypes="ccsccc"
           inkscape:connector-curvature="0"
           id="path1603"
           d="m 276.48445,138.13044 v 20.2991 c 0,0 8.98025,3.5547 13.9381,4.5837 4.95786,1.029 3.44865,0.68693 3.44865,0.68693 v -34.2372 z"
           style="fill:#00b4ff;fill-opacity:1;stroke:none;stroke-width:0.264583px;stroke-linecap:butt;stroke-linejoin:miter;stroke-opacity:1" />
        <path
           inkscape:connector-curvature="0"
           id="path1670"
           d="m 278.14665,133.61096 v 17.3302 c 0,0 0.13229,4.8948 3.50573,4.96094 3.37344,0.0661 3.70417,-5.55625 3.70417,-5.55625 V 132.9495 Z"
           style="fill:#00e1ff;fill-opacity:1;stroke:none;stroke-width:0.264583px;stroke-linecap:butt;stroke-linejoin:miter;stroke-opacity:1" />
        <circle
           style="opacity:1;vector-effect:none;fill:#0073ff;fill-opacity:1;stroke:none;stroke-width:0.264583px;stroke-linecap:butt;stroke-linejoin:miter;stroke-miterlimit:4;stroke-dasharray:none;stroke-dashoffset:0;stroke-opacity:1"
           id="path896-1-25-3-7-4-4-9-8"
           cx="285.27753"
           cy="125.68229"
           r="15.024553" />
        <circle
           style="fill:#00002d;fill-opacity:1;stroke:none;stroke-width:0.264583"
           id="path896-12-2-5-4-3-8-3"
           cx="285.27753"
           cy="125.68229"
           r="11.055803" />
        <path
           sodipodi:nodetypes="ccsccc"
           inkscape:connector-curvature="0"
           id="path1603-2"
           d="m 350.21392,134.85642 v 23.66667 c 0,0 -8.98025,3.5547 -13.9381,4.5837 -4.95786,1.029 -3.44865,0.68693 -3.44865,0.68693 v -34.2372 z"
           style="fill:#00b4ff;fill-opacity:1;stroke:none;stroke-width:0.264583px;stroke-linecap:butt;stroke-linejoin:miter;stroke-opacity:1" />
        <path
           inkscape:connector-curvature="0"
           id="path1670-7"
           d="m 333.05374,135.30181 v 17.3302 c 0,0 0.13229,4.89476 3.50573,4.9609 3.37344,0.0661 3.70417,-5.5562 3.70417,-5.5562 v -17.3964 z"
           style="fill:#00e1ff;fill-opacity:1;stroke:none;stroke-width:0.264583px;stroke-linecap:butt;stroke-linejoin:miter;stroke-opacity:1" />
        <circle
           style="fill:#0073ff;fill-opacity:1;stroke:none;stroke-width:0.359562"
           id="path896-1-2-3-2-7-2-1-1-3"
           cx="340.84003"
           cy="125.41772"
           r="15.024553" />
        <circle
           style="fill:#00002d;fill-opacity:1;stroke:none;stroke-width:0.264583"
           id="path896-4-0-9-4-4-4-3-0"
           cx="340.46204"
           cy="125.68229"
           r="11.055803" />
      </g>
      <path
         inkscape:export-ydpi="96"
         inkscape:export-xdpi="96"
         inkscape:export-filename="/home/ss/repo/sugaroid/sugaroid/gui/ui/sugaroid_depressed.png"
         sodipodi:nodetypes="cccccccccccccccc"
         inkscape:connector-curvature="0"
         id="path1046-9-3-5-5-4-5-9"
         d="m 91.527393,64.337717 c 2.63756,-1.3e-4 4.775711,-2.13828 4.775811,-4.775901 0.450329,-1.889749 1.93924,-1.786639 2.489409,-1.811459 1.525737,0 2.762597,1.236779 2.762517,2.762559 -5.3e-4,0.01101 -0.002,0.02241 -0.004,0.0337 l 2.48726,0.16206 -1.53547,-5.238729 -6.684326,-7.94866 -13.0068,0.18052 -5.6906,14.542648 4.202959,-0.682818 c -0.0222,-0.142491 -0.0339,-0.28652 -0.0346,-0.43072 6.1e-5,-1.596051 1.293932,-2.889851 2.890002,-2.889851 1.089998,0 2.08716,0.613532 2.578809,1.58632 0.14075,2.53002 2.232829,4.509731 4.766741,4.510831 z"
         style="fill:#ececec;fill-opacity:1;stroke:none;stroke-width:0.45298" />
      <path
         inkscape:export-ydpi="96"
         inkscape:export-xdpi="96"
         inkscape:export-filename="/home/ss/repo/sugaroid/sugaroid/gui/ui/sugaroid_depressed.png"
         sodipodi:nodetypes="cccccccccccccccc"
         inkscape:connector-curvature="0"
         id="path1046-9-3-2-2-9-7-3-3"
         d="m 53.921434,64.973696 c 2.63757,-9e-5 4.775729,-2.138259 4.775798,-4.77584 0.45035,-1.8898 1.939282,-1.786628 2.489441,-1.811459 1.52573,-6.1e-5 2.762591,1.23685 2.76249,2.76257 -5.29e-4,0.01101 -0.0021,0.02241 -0.004,0.0337 l 2.48725,0.16212 -1.535459,-5.23857 -6.684319,-7.948731 -13.006822,0.180512 -5.6906,14.542659 4.20298,-0.6829 c -0.02209,-0.14242 -0.0338,-0.286531 -0.0346,-0.430631 5.8e-5,-1.596128 1.293939,-2.889959 2.889999,-2.889959 1.08999,7.9e-5 2.08717,0.61364 2.57883,1.586349 0.140729,2.530001 2.232821,4.50972 4.76673,4.510741 z"
         style="fill:#ececec;fill-opacity:1;stroke:none;stroke-width:0.45298" />
    </g>
  </g>
</svg>
